# xmcd
#
# Track frame offsets:
#	150
#	11800
#	30450
#	42900
#	64227
#	66505
#	84667
#	102807
#	115032
#	132175
#	147925
#	164932
#	182375
#
# Disc length: 2624
#
# Revision: 1
# Processed by: cddbd v1.5.1PL0 Copyright (c) Steve Scherf et al.
# Submitted via: VisiTrax 2.9.5.181 - For more info visit www.synapsa.com
# Normalized: r0:DSETVAR1
#
DISCID=b50a3e0d
DTITLE=Various Artist - Fire and Lace
DYEAR=1993
DGENRE=Country
TTITLE0=Michelle Wright - A good man is hard to find
TTITLE1=Gary Fjellgaard, Linda Kidder - Fire and lace
TTITLE2=Anita Perras - One smokey rose
TTITLE3=Terry Sumsion - She gave it all to me
TTITLE4=Matt Minglewood - Talks about "Cheri, I miss you"
TTITLE5=Matt Minglewood - Cheri, I miss you
TTITLE6=Michelle Wright - Do right by me
TTITLE7=The Good Brothers - Holdin' a good hand
TTITLE8=Terry Carisse - The closest thing to you
TTITLE9=Terry Sumsion - Our lovin' place
TTITLE10=Gary Fjellgaard - Old fashioned romance
TTITLE11=Anita Perras - I've found someone too
TTITLE12=Terry Sumsion - Lovin' the night away
EXTD=
EXTT0=
EXTT1=
EXTT2=
EXTT3=
EXTT4=
EXTT5=
EXTT6=
EXTT7=
EXTT8=
EXTT9=
EXTT10=
EXTT11=
EXTT12=
PLAYORDER=
